<svg width="60" height="60" viewBox="0 0 60 60" fill="none" xmlns="http://www.w3.org/2000/svg">
<circle cx="30" cy="30" r="30" fill="#E9EAF3"/>
<path d="M37.2004 25.9764L33.3604 25.4226L31.6619 21.9518C31.3296 21.3241 30.7019 20.918 30.0004 20.918C29.2988 20.918 28.6711 21.3241 28.3388 21.9518L26.6404 25.4226L22.8004 25.9764C22.0988 26.0872 21.5081 26.5672 21.2865 27.2318C21.065 27.9334 21.2496 28.6349 21.7665 29.1518L24.5358 31.8472L23.8711 35.6503C23.7604 36.3518 24.0188 37.0534 24.6096 37.4595C24.9419 37.681 25.3111 37.8287 25.6804 37.8287C25.9758 37.8287 26.2711 37.7549 26.5296 37.6072L30.0004 35.798L33.4342 37.6072C34.0619 37.9395 34.8004 37.8657 35.3542 37.4595C35.945 37.0534 36.2034 36.3518 36.0927 35.6503L35.465 31.8472L38.2342 29.1518C38.7511 28.6718 38.9358 27.9334 38.7142 27.2687C38.4927 26.5672 37.9019 26.0872 37.2004 25.9764ZM33.4711 31.1826L34.2834 35.9457L30.0004 33.7303L25.7173 35.9826L26.5296 31.2195L23.0588 27.8226L27.8588 27.121L30.0004 22.7641L32.1419 27.121L36.9419 27.8226L33.4711 31.1826Z" fill="#3A3597"/>
<path d="M30.0001 15.3047C21.877 15.3047 15.3047 21.9139 15.3047 30.0001C15.3047 38.1231 21.9139 44.6955 30.0001 44.6955C38.0862 44.6955 44.6955 38.0862 44.6955 30.0001C44.6955 21.877 38.1231 15.3047 30.0001 15.3047ZM30.0001 42.8493C22.9108 42.8493 17.1508 37.0893 17.1508 30.0001C17.1508 22.9108 22.9108 17.1508 30.0001 17.1508C37.0893 17.1508 42.8493 22.9108 42.8493 30.0001C42.8493 37.0893 37.0893 42.8493 30.0001 42.8493Z" fill="#3A3597"/>
</svg>
