<svg width="198" height="37" viewBox="0 0 198 37" fill="none" xmlns="http://www.w3.org/2000/svg">
<path d="M3.72902 17.2757L0.421987 13.9884C0.2109 13.7786 0.2109 13.4289 0.421987 13.1491L13.5094 0.139642C13.5798 0.0696992 13.7205 -0.000244141 13.8612 -0.000244141H21.1086L3.72902 17.2757Z" fill="white"/>
<path d="M9.9209 13.5688L22.8676 0.699189C23.2898 0.279529 23.923 -0.000244141 24.4859 -0.000244141H34.9699C35.6032 -0.000244141 36.1661 0.209586 36.5883 0.699189L49.535 13.5688L45.8058 17.2757L31.4518 2.86743C30.5371 1.95817 29.0595 1.95817 28.1448 2.86743L13.6501 17.2757L9.9209 13.5688Z" fill="white"/>
<path d="M29.2005 4.26623L26.0342 7.41367L40.951 22.2417L44.6802 18.5347L30.3263 4.26623C30.0448 3.98645 29.5523 3.98645 29.2005 4.26623Z" fill="white"/>
<path d="M45.9469 19.7241L49.254 23.0115C49.465 23.2213 49.465 23.571 49.254 23.8508L36.1665 36.8602C36.0258 37.0001 35.8851 37.0001 35.7444 37.0001H28.5674L45.9469 19.7241Z" fill="white"/>
<path d="M39.6844 23.4311L26.7377 36.3007C26.3156 36.7203 25.6823 37.0001 25.1194 37.0001H14.6354C14.0021 37.0001 13.4392 36.7903 13.0171 36.3007L0 23.4311L3.72921 19.7241L18.2239 34.1324C19.1386 35.0417 20.6162 35.0417 21.5309 34.1324L36.0256 19.7241L39.6844 23.4311Z" fill="white"/>
<path d="M20.4055 32.7331L23.5718 29.5857L8.65499 14.8276L4.92578 18.5346L19.2094 32.7331C19.5612 33.0129 20.1241 33.0129 20.4055 32.7331Z" fill="white"/>
<path d="M83.9428 13.8489H78.6656C78.5249 13.0096 78.2434 12.2402 77.8213 11.5408C77.3991 10.8414 76.9065 10.2818 76.3436 9.86217C75.7104 9.37256 75.0771 9.02285 74.3031 8.81302C73.5291 8.60319 72.6848 8.4633 71.8404 8.4633C70.2925 8.4633 68.8852 8.88296 67.6891 9.65234C66.4929 10.4217 65.5078 11.5408 64.8746 13.0796C64.1709 14.5484 63.8191 16.3669 63.8191 18.5351C63.8191 20.7034 64.1709 22.5918 64.8746 24.0607C65.5782 25.5295 66.4929 26.6486 67.6891 27.4179C68.8852 28.1873 70.2925 28.537 71.8404 28.537C72.6848 28.537 73.5291 28.3971 74.2328 28.1873C75.0068 27.9775 75.64 27.6278 76.2733 27.2081C76.9065 26.7884 77.3991 26.2289 77.8213 25.5295C78.2434 24.9 78.5249 24.1306 78.6656 23.2913H83.9428C83.7317 24.6202 83.3095 25.9491 82.6763 27.1382C82.043 28.3272 81.1987 29.3763 80.1432 30.2856C79.0878 31.1949 77.8916 31.8943 76.4844 32.3839C75.0771 32.8735 73.5291 33.1533 71.7701 33.1533C69.237 33.1533 66.9854 32.5937 65.0153 31.4047C63.0451 30.2157 61.4972 28.537 60.301 26.3688C59.1752 24.2005 58.6123 21.5427 58.6123 18.4652C58.6123 15.3877 59.1752 12.7298 60.3714 10.5616C61.4972 8.39336 63.1155 6.71472 65.0857 5.52568C67.0558 4.33665 69.3074 3.7771 71.8404 3.7771C73.4588 3.7771 74.9364 3.98693 76.3436 4.47653C77.7509 4.89619 78.9471 5.59562 80.0025 6.43494C81.0579 7.27426 81.9726 8.32341 82.6763 9.58239C83.2392 10.8414 83.7317 12.2402 83.9428 13.8489Z" fill="white"/>
<path d="M91.8237 4.19702L98.1563 14.6885H98.3674L104.77 4.19702H110.751L101.886 18.5354L110.892 32.8738H104.841L98.3674 22.3823H98.1563L91.7533 32.8038H85.7021L94.7789 18.4655L85.8429 4.19702H91.8237Z" fill="white"/>
<path d="M138.685 18.4652C138.685 21.5427 138.122 24.2005 136.926 26.3688C135.8 28.537 134.182 30.2157 132.211 31.4047C130.241 32.5937 127.99 33.1533 125.457 33.1533C122.924 33.1533 120.672 32.5937 118.702 31.4047C116.732 30.2157 115.113 28.537 113.988 26.3688C112.862 24.2005 112.229 21.5427 112.229 18.4652C112.229 15.3877 112.791 12.7298 113.988 10.5616C115.113 8.39336 116.732 6.71472 118.702 5.52568C120.672 4.33665 122.924 3.7771 125.457 3.7771C127.99 3.7771 130.241 4.33665 132.211 5.52568C134.182 6.71472 135.8 8.39336 136.926 10.5616C138.052 12.7298 138.685 15.3877 138.685 18.4652ZM133.408 18.4652C133.408 16.2969 133.056 14.4784 132.423 12.9397C131.789 11.4009 130.804 10.2818 129.608 9.51245C128.412 8.74307 127.005 8.39336 125.457 8.39336C123.909 8.39336 122.501 8.74307 121.305 9.51245C120.109 10.2818 119.194 11.4009 118.491 12.9397C117.787 14.4085 117.506 16.2969 117.506 18.4652C117.506 20.6334 117.858 22.452 118.491 23.9907C119.194 25.4595 120.109 26.6486 121.305 27.4179C122.501 28.1873 123.909 28.537 125.457 28.537C127.005 28.537 128.412 28.1873 129.608 27.4179C130.804 26.6486 131.719 25.5295 132.423 23.9907C133.056 22.452 133.408 20.6334 133.408 18.4652Z" fill="white"/>
<path d="M142.836 32.8038V4.19702H161.552V8.53351H148.043V16.2972H160.567V20.6337H148.043V28.4673H161.693V32.8038H142.836Z" fill="white"/>
<path d="M165.844 32.8029V11.3303H170.769V14.8974H170.98C171.402 13.6384 172.036 12.7292 173.021 12.0297C174.006 11.3303 175.061 11.0505 176.328 11.0505C176.609 11.0505 176.891 11.0505 177.242 11.0505C177.594 11.0505 177.876 11.1205 178.087 11.1904V15.8766C177.876 15.8067 177.524 15.7367 177.102 15.6668C176.609 15.5969 176.187 15.5969 175.765 15.5969C174.85 15.5969 174.006 15.8067 173.302 16.1564C172.599 16.5761 171.965 17.0657 171.543 17.7651C171.121 18.4645 170.91 19.3038 170.91 20.2131V32.8029H165.844V32.8029Z" fill="white"/>
<path d="M186.601 33.2233C185.264 33.2233 183.997 33.0135 182.942 32.5239C181.816 32.0343 180.972 31.3348 180.339 30.3556C179.705 29.3764 179.424 28.1874 179.424 26.7885C179.424 25.5995 179.635 24.5503 180.127 23.781C180.55 23.0116 181.183 22.3821 181.957 21.8925C182.731 21.4029 183.646 21.0532 184.56 20.8433C185.545 20.5636 186.53 20.4237 187.586 20.2838C188.852 20.1439 189.908 20.004 190.682 19.9341C191.456 19.7942 192.019 19.6543 192.371 19.4445C192.722 19.2346 192.933 18.8849 192.933 18.3953V18.3254C192.933 17.2762 192.652 16.4369 192.019 15.8774C191.385 15.3178 190.471 15.038 189.275 15.038C188.008 15.038 187.023 15.3178 186.319 15.8774C185.616 16.4369 185.123 17.0664 184.842 17.7658L180.057 17.0664C180.409 15.7375 181.042 14.6883 181.887 13.7791C182.731 12.8698 183.786 12.2403 185.053 11.8207C186.319 11.401 187.656 11.1912 189.204 11.1912C190.26 11.1912 191.315 11.331 192.3 11.5409C193.356 11.7507 194.27 12.1704 195.115 12.7299C195.959 13.2895 196.663 14.0588 197.155 14.9681C197.648 15.9473 197.929 17.1363 197.929 18.5352V32.8736H193.004V29.936H192.863C192.582 30.5655 192.089 31.0551 191.597 31.6146C191.034 32.1042 190.33 32.5239 189.486 32.8736C188.712 33.0834 187.727 33.2233 186.601 33.2233ZM187.867 29.5163C188.923 29.5163 189.767 29.3065 190.541 28.8868C191.315 28.4672 191.878 27.9776 192.3 27.2781C192.722 26.5787 192.933 25.8793 192.933 25.1099V22.5919C192.793 22.7318 192.511 22.8717 192.159 22.9416C191.808 23.0815 191.385 23.1515 190.893 23.2214C190.4 23.2914 189.978 23.3613 189.486 23.4312C188.993 23.5012 188.641 23.5711 188.29 23.5711C187.516 23.6411 186.882 23.8509 186.249 24.0607C185.616 24.2706 185.194 24.6203 184.842 25.0399C184.49 25.4596 184.349 26.0191 184.349 26.6486C184.349 27.5579 184.701 28.2573 185.405 28.7469C185.968 29.2365 186.812 29.5163 187.867 29.5163Z" fill="white"/>
</svg>
